# ProBuilder 5.0.6
# https://unity3d.com/unity/features/worldbuilding/probuilder
# 19/08/2022 13:51:05

mtllib ./SquarePyramid.mtl
o SquarePyramid

g SquarePyramid
v 1 -1 1
v -1 -1 1
v 4.577637E-05 1 -9.536743E-05
v -1 -1 -1
v 1 -1 -1

vt 1 -1.341658
vt -1 -1.341658
vt 4.577637E-05 0.8944528
vt -4.577637E-05 -9.536743E-05
vt 1 -1
vt -1 -1
vt 1 1
vt -1 1

vn 0 0.4472477 0.8944101
vn -0.8944354 0.4471972 0
vn -2.980232E-08 0 0
vn 0.8944353 -0.4471972 0
vn 0 0.4472477 -0.8944101
vn 0.8944354 0.4471972 0
vn -0.8944353 -0.4471972 0
vn 0 -1 0

usemtl ProBuilderDefault
f 3/3/1 3/3/1 2/2/1 1/1/1
f 3/3/3 3/3/4 4/2/3 2/1/2
f 3/3/5 3/3/5 5/2/5 4/1/5
f 3/3/3 3/3/7 1/2/3 5/1/6
f 3/4/3 3/4/3 3/4/3 3/4/3
f 1/7/8 2/8/8 4/6/8 5/5/8

