# ProBuilder 5.0.6
# https://unity3d.com/unity/features/worldbuilding/probuilder
# 19/08/2022 13:53:23

mtllib ./TrianglePyramid.mtl
o TrianglePyramid

g SquarePyramid
v 1 -1 1
v -1 -1 1
v 4.577637E-05 1 -9.536743E-05
v -0.0003318787 -1 -1

vt 1 -1.341658
vt -1 -1.341658
vt 4.577637E-05 0.8944528
vt 1.341581 -1.073539
vt -0.8943382 -1.073539
vt -6.483851E-05 0.975872
vt 0.0003318787 -1.341658
vt 0.8943382 -1.073552
vt -1.341581 -1.073552
vt -4.577637E-05 -9.536743E-05
vt 0.0003318787 -1
vt 1 1
vt -1 1

vn 0 0.4472477 0.8944101
vn -0.8729207 0.2182618 -0.4363155
vn 0.04646513 0.1670074 -0.3340598
vn 0.9658509 0.1157529 -0.2318042
vn 0 0.4472477 -0.8944101
vn 0 0.2236239 -0.4472051
vn 0 0 0
vn 0.8729089 0.2183205 -0.4363096
vn 0.02007478 -0.1489904 -0.3180859
vn -0.8327594 -0.5163013 -0.1998622
vn 0 -1 0

usemtl ProBuilderDefault
f 3/3/1 3/3/1 2/2/1 1/1/1
f 3/6/3 3/6/4 4/5/3 2/4/2
f 3/3/6 3/3/7 4/7/6 4/7/5
f 3/6/9 3/6/10 1/9/9 4/8/8
f 3/10/7 3/10/7 3/10/7 3/10/7
f 1/12/11 2/13/11 4/11/11 4/11/11

